<svg width="371" height="441" viewBox="0 0 371 441" fill="none" xmlns="http://www.w3.org/2000/svg">
<g clip-path="url(#clip0_26_579)">
<path d="M57.8098 98.8144C62.6753 94.3323 71.4234 93.9352 76.3971 98.4524C84.1021 105.442 92.9003 119.272 100.638 127.653C107.486 135.067 127.557 150.97 130.951 158.088C132.726 161.806 131.882 166.485 135.457 170.645C142.671 179.048 151.852 174.406 158.678 182.304L245.99 296.239C252.593 307.04 234.761 321.16 226.581 326.421C219.058 331.265 207.635 337.455 200.8 328.235L113.439 214.293C108.559 205.411 117.762 195.874 104.574 186.365C102.635 184.963 100.005 184.428 98.4075 183.071C92.6885 178.192 82.1654 154.341 76.8181 145.935C70.5744 136.115 59.9418 124.496 54.8551 114.985C51.7921 109.248 53.0128 103.215 57.7773 98.8101L57.8098 98.8144ZM123.662 163.293C123.627 163.057 126.913 163.058 126.157 159.945C125.545 157.437 123.011 154.652 121.33 152.614C114.107 143.896 103.118 134.932 95.0956 126.084C87.0727 117.236 79.8179 107.506 72.278 98.5646C69.9668 96.9815 57.8737 106.387 56.3796 108.586C55.5711 109.777 55.761 110.784 56.5383 111.91L100.027 177.519C105.202 181.955 111.893 174.129 116.289 172.533C118.501 171.725 121.481 173.057 122.931 172.397C130.538 168.918 123.921 164.904 123.669 163.302L123.662 163.293ZM142.916 221.512C145.121 218.737 153.596 213.308 157.095 210.62C157.187 210.55 155.725 209.483 156.35 208.301C157.656 205.838 161.834 201.373 161.538 198.023C161.454 197.095 153.684 183.102 153.045 182.498C151.966 181.473 149.86 183.864 148.225 183.485C146.469 183.081 138.151 177.935 134.883 178.357C132.478 180.891 116.097 185.019 115.719 186.96C115.669 187.217 117.504 189.911 117.701 191.745C118.188 196.409 115.795 200.802 115.81 201.316C115.835 201.881 117.716 210.394 117.957 210.823C119.129 212.843 127.648 221.937 130.118 224.829C134.192 229.6 135.43 231.745 139.218 236.676C158.433 261.691 178.841 289.572 199.453 313.193C201.004 314.966 208.109 322.504 209.64 321.722C214.13 319.412 214.921 312.439 215.373 312.077C215.804 311.745 219.331 312.497 221.162 311.572C222.364 310.97 225.948 307.196 225.993 306.343C226.083 304.463 219.336 291.802 218.837 287.674C218.391 283.957 221.101 282.751 221.141 280.56C221.207 277.034 211.177 266.428 208.511 262.387C204.907 256.935 201.435 249.716 197.69 244.46C188.638 231.744 178.191 219.911 169.047 207.266C163.263 212.453 155.064 221.263 148.261 224.707C145.387 226.155 141.147 223.732 142.9 221.509L142.916 221.512Z" fill="black"/>
<circle cx="242" cy="110.281" r="12" fill="white"/>
<circle cx="37" cy="210.281" r="12" fill="white"/>
<circle cx="96" cy="296.281" r="12" fill="white"/>
</g>
<defs>
<clipPath id="clip0_26_579">
<rect width="301.075" height="324.235" fill="white" transform="translate(-66 183.403) rotate(-37.5288)"/>
</clipPath>
</defs>
</svg>
