<svg width="56" height="284" viewBox="0 0 56 284" fill="none" xmlns="http://www.w3.org/2000/svg">
<path d="M26.3579 0.0472753C32.9468 -0.543295 40.1263 4.47076 41.319 11.0828C43.1718 21.3194 41.7243 37.6469 42.7549 49.0067C43.6697 59.058 49.8997 83.8967 48.2553 91.6089C47.3984 95.6386 43.8781 98.8347 44.1792 104.312C44.7814 115.371 54.8906 117.281 55.4927 127.703L55.3306 271.247C53.9873 283.834 31.2446 284.17 21.5523 283.359C12.6358 282.618 -0.194618 280.568 0.00223841 269.093L0.129617 125.515C1.66973 115.498 14.7781 113.541 10.1114 97.9662C9.42821 95.6734 7.66807 93.6469 7.22804 91.5973C5.66477 84.2441 11.8484 58.919 12.7285 48.9951C13.7591 37.4038 12.4042 21.7131 14.1644 11.0713C15.2297 4.65604 19.8732 0.614686 26.3347 0.0241157L26.3579 0.0472753ZM39.3041 91.2962C39.4199 91.0878 42.0254 93.0911 43.3223 90.1614C44.3645 87.7991 44.0519 84.0472 43.9592 81.407C43.5423 70.0936 40.2884 56.2904 39.3157 44.3864C38.343 32.4823 38.5167 20.3467 37.984 8.66266C37.1155 5.9993 21.7954 6.09194 19.271 6.92569C17.9046 7.3773 17.4414 8.2921 17.372 9.65852L11.8947 88.1812C13.2959 94.8512 23.3703 92.7205 27.8285 94.1333C30.075 94.8396 31.6267 97.7114 33.1784 98.0704C41.3306 99.9463 38.5283 92.7321 39.3041 91.3078V91.2962ZM19.1089 149.195C22.5481 148.338 32.5763 149.195 36.9882 149.195C37.104 149.195 36.5944 147.458 37.8103 146.902C40.3463 145.745 46.3794 144.749 48.1858 141.912C48.6838 141.124 51.0461 125.295 50.9071 124.426C50.6755 122.955 47.549 123.569 46.4836 122.272C45.3372 120.883 41.8748 111.735 39.0262 110.079C35.5754 110.623 20.0701 103.918 18.5878 105.227C18.391 105.4 18.2057 108.654 17.2446 110.229C14.7897 114.224 10.2156 116.251 9.91456 116.668C9.59032 117.131 5.89636 125.028 5.82688 125.515C5.52581 127.831 6.74169 140.232 6.93854 144.031C7.26278 150.295 6.93854 152.75 6.93854 158.969C6.93854 190.512 6.13954 225.055 8.09653 256.343C8.24706 258.694 9.28925 269 10.9799 269.313C15.9476 270.216 20.8227 265.167 21.4017 265.156C21.946 265.156 24.2851 267.9 26.3 268.282C27.6201 268.537 32.7615 267.726 33.3174 267.078C34.5332 265.642 36.8955 251.491 39.0146 247.913C40.9253 244.694 43.8087 245.389 45.1751 243.675C47.3753 240.919 45.8815 226.398 46.2289 221.569C46.692 215.05 48.3364 207.21 48.568 200.76C49.1354 185.162 48.0585 169.414 48.5101 153.816C40.7632 154.406 28.8939 156.398 21.4017 154.985C18.2404 154.383 16.3529 149.878 19.0973 149.184L19.1089 149.195Z" fill="black"/>
</svg>
