<svg width="1370" height="575" viewBox="0 0 1370 575" fill="none" xmlns="http://www.w3.org/2000/svg">
<path d="M136.474 218.827C143.214 218.788 140.694 218.016 142.134 216.092C143.244 214.607 143.134 221.885 147.834 216.736C148.714 215.769 147.204 206.313 150.574 210.562C150.894 210.973 149.754 213.376 151.454 214.812C152.274 215.506 154.814 215.447 156.154 216.815C161.894 222.666 166.164 231.009 172.564 236.694L170.284 416.725C169.674 422.801 173.734 429.171 174.084 434.788C174.264 437.562 170.904 448.025 175.224 448.699C176.074 448.835 178.464 447.507 180.694 447.761C195.964 449.461 210.894 458.585 209.874 475.251L212.664 472.505C219.154 525.814 139.284 514.629 150.574 466.986L143.524 468.373C149.804 474.684 144.054 486.778 146.534 493.684C147.154 495.413 157.034 499.341 159.754 501.451C196.964 530.288 151.854 581.614 113.874 551.78C88.8636 532.135 98.7236 503.854 125.994 493.176C126.194 484.912 121.404 473.297 129.414 468.363L120.964 465.589C129.944 497.191 92.8636 514.267 69.5936 492.981C66.8136 490.441 61.2536 482.059 60.6036 478.347C56.3936 454.15 74.7636 440.053 98.3736 443.531C98.7136 438.842 97.7936 433.723 98.4336 429.122C105.744 376.399 102.094 316.135 101.244 262.181C101.114 253.741 96.9236 241.188 102.524 233.217C104.084 231.009 107.174 230.403 108.794 228.313C112.574 223.457 114.674 215.681 122.134 214.46L125.144 182.555C125.974 180.709 130.214 181.666 130.494 179.585C130.864 176.772 128.794 169.553 129.484 164.414C130.174 159.276 133.864 151.637 135.124 146.488C136.674 108.429 135.374 69.9295 137.814 31.9285C138.244 25.3052 140.854 18.721 140.704 12L143.574 25.0317C145.734 64.6445 140.574 104.365 140.574 143.665C140.574 149.175 142.324 156.765 143.514 162.265L139.294 160.897L137.884 180.191L143.524 178.823L142.074 181.549C152.034 180.963 146.204 194.776 147.774 201.321C147.934 201.985 154.324 204.086 148.444 209.146C148.324 202.435 143.224 205.6 137.874 205.004C137.494 202.415 141.244 205.053 140.704 201.575C140.314 199.045 139.144 197.795 136.464 198.117V218.798L136.474 218.827ZM148.914 316.447L148.974 247.274C147.684 243.445 139.914 245.408 136.474 245.027C140.944 263.656 135.364 286.486 137.774 305.076C138.124 307.802 142.194 306.806 140.694 311.182L137.874 309.121L137.794 422.01C147.644 427.744 143.344 417.858 144.074 411.841C147.604 382.778 147.204 355.337 147.684 325.601C147.724 322.924 149.254 320.375 149.254 318.851C149.254 317.434 146.284 318.733 146.334 317.395C146.384 316.057 148.284 317.18 148.914 316.447ZM110.594 488.575C121.864 477.273 114.034 461.476 102.504 453.974C90.0336 445.866 68.1736 449.89 66.0336 466.41C63.0736 489.269 94.9036 504.303 110.594 488.575ZM178.484 454.843C175.764 455.205 167.164 459.298 164.854 460.939C146.654 473.951 161.804 499.751 182.314 500.171C221.784 500.972 209.424 450.711 178.484 454.843ZM127.624 503.15C117.414 504.987 107.624 516.7 108.184 526.908C109.924 558.13 171.264 561.119 164.354 521.77C161.684 506.55 141.334 500.679 127.614 503.15H127.624Z" fill="#4695F4"/>
<path d="M1232.47 209.827C1239.21 209.788 1236.69 209.016 1238.13 207.092C1239.24 205.607 1239.13 212.885 1243.83 207.736C1244.71 206.769 1243.2 197.313 1246.57 201.562C1246.89 201.973 1245.75 204.376 1247.45 205.812C1248.27 206.506 1250.81 206.447 1252.15 207.815C1257.89 213.666 1262.16 222.009 1268.56 227.694L1266.28 407.725C1265.67 413.801 1269.73 420.171 1270.08 425.788C1270.26 428.562 1266.9 439.025 1271.22 439.699C1272.07 439.835 1274.46 438.507 1276.69 438.761C1291.96 440.461 1306.89 449.585 1305.87 466.251L1308.66 463.505C1315.15 516.814 1235.28 505.629 1246.57 457.986L1239.52 459.373C1245.8 465.684 1240.05 477.778 1242.53 484.684C1243.15 486.413 1253.03 490.341 1255.75 492.451C1292.96 521.288 1247.85 572.614 1209.87 542.78C1184.86 523.135 1194.72 494.854 1221.99 484.176C1222.19 475.912 1217.4 464.297 1225.41 459.363L1216.96 456.589C1225.94 488.191 1188.86 505.267 1165.59 483.981C1162.81 481.441 1157.25 473.059 1156.6 469.347C1152.39 445.15 1170.76 431.053 1194.37 434.531C1194.71 429.842 1193.79 424.723 1194.43 420.122C1201.74 367.399 1198.09 307.135 1197.24 253.181C1197.11 244.741 1192.92 232.188 1198.52 224.217C1200.08 222.009 1203.17 221.403 1204.79 219.313C1208.57 214.457 1210.67 206.681 1218.13 205.46L1221.14 173.555C1221.97 171.709 1226.21 172.666 1226.49 170.585C1226.86 167.772 1224.79 160.553 1225.48 155.414C1226.17 150.276 1229.86 142.637 1231.12 137.488C1232.67 99.4287 1231.37 60.9295 1233.81 22.9285C1234.24 16.3052 1236.85 9.721 1236.7 3L1239.57 16.0317C1241.73 55.6445 1236.57 95.3648 1236.57 134.665C1236.57 140.175 1238.32 147.765 1239.51 153.265L1235.29 151.897L1233.88 171.191L1239.52 169.823L1238.07 172.549C1248.03 171.963 1242.2 185.776 1243.77 192.321C1243.93 192.985 1250.32 195.086 1244.44 200.146C1244.32 193.435 1239.22 196.6 1233.87 196.004C1233.49 193.415 1237.24 196.053 1236.7 192.575C1236.31 190.045 1235.14 188.795 1232.46 189.117V209.798L1232.47 209.827ZM1244.91 307.447L1244.97 238.274C1243.68 234.445 1235.91 236.408 1232.47 236.027C1236.94 254.656 1231.36 277.486 1233.77 296.076C1234.12 298.802 1238.19 297.806 1236.69 302.182L1233.87 300.121L1233.79 413.01C1243.64 418.744 1239.34 408.858 1240.07 402.841C1243.6 373.778 1243.2 346.337 1243.68 316.601C1243.72 313.924 1245.25 311.375 1245.25 309.851C1245.25 308.434 1242.28 309.733 1242.33 308.395C1242.38 307.057 1244.28 308.18 1244.91 307.447ZM1206.59 479.575C1217.86 468.273 1210.03 452.476 1198.5 444.974C1186.03 436.866 1164.17 440.89 1162.03 457.41C1159.07 480.269 1190.9 495.303 1206.59 479.575ZM1274.48 445.843C1271.76 446.205 1263.16 450.298 1260.85 451.939C1242.65 464.951 1257.8 490.751 1278.31 491.171C1317.78 491.972 1305.42 441.711 1274.48 445.843ZM1223.62 494.15C1213.41 495.987 1203.62 507.7 1204.18 517.908C1205.92 549.13 1267.26 552.119 1260.35 512.77C1257.68 497.55 1237.33 491.679 1223.61 494.15H1223.62Z" fill="#4695F4"/>
<path d="M684.474 154.78C691.214 154.741 688.694 153.969 690.134 152.045C691.244 150.56 691.134 157.837 695.834 152.689C696.714 151.722 695.204 142.266 698.574 146.515C698.894 146.926 697.754 149.329 699.454 150.765C700.274 151.458 702.814 151.4 704.154 152.767C709.894 158.619 714.164 166.962 720.564 172.647L718.284 352.678C717.674 358.754 721.734 365.124 722.084 370.741C722.264 373.515 718.904 383.978 723.224 384.652C724.074 384.788 726.464 383.46 728.694 383.714C743.964 385.414 758.894 394.538 757.874 411.203L760.664 408.458C767.154 461.767 687.284 450.582 698.574 402.939L691.524 404.326C697.804 410.637 690.52 436.046 693 442.953C693.62 444.682 692.184 491.343 694.904 493.453C732.114 522.291 696.574 579.658 658.594 549.824C633.584 530.179 643.444 501.898 670.714 491.221C670.914 482.956 669.404 409.25 677.414 404.316L668.964 401.542C677.944 433.144 640.864 450.22 617.594 428.934C614.814 426.394 609.254 418.012 608.604 414.3C604.394 390.103 622.764 376.006 646.374 379.484C646.714 374.795 645.794 369.676 646.434 365.075C653.744 312.352 650.094 252.088 649.244 198.134C649.114 189.694 644.924 177.141 650.524 169.169C652.084 166.962 655.174 166.356 656.794 164.265C660.574 159.41 662.674 151.634 670.134 150.413L673.144 118.508C673.974 116.662 678.214 117.619 678.494 115.538C678.864 112.725 681.743 123.646 682.433 118.508C683.123 113.369 680.424 153.637 681.684 148.488C683.234 110.429 681.934 71.9296 684.374 33.9285C684.804 27.3052 687.414 20.721 687.264 14L690.134 27.0317C692.294 66.6446 687.134 106.365 687.134 145.665C687.134 151.175 688.884 158.765 690.074 164.265L685.854 162.897L685.884 116.144L691.524 114.776L690.074 117.502C700.034 116.916 694.204 130.729 695.774 137.274C695.934 137.938 702.324 140.039 696.444 145.099C696.324 138.388 691.224 141.553 685.874 140.957C685.494 138.368 689.244 141.006 688.704 137.528C688.314 134.998 687.144 133.747 684.464 134.07V154.75L684.474 154.78ZM696.914 252.4L696.974 183.227C695.684 179.397 687.914 181.361 684.474 180.98C688.944 199.609 683.364 222.439 685.774 241.029C686.124 243.755 690.194 242.758 688.694 247.135L685.874 245.074L685.794 357.963C695.644 363.697 691.344 353.811 692.074 347.794C695.604 318.731 695.204 291.29 695.684 261.554C695.724 258.877 697.254 256.327 697.254 254.803C697.254 253.387 694.284 254.686 694.334 253.348C694.384 252.01 696.284 253.133 696.914 252.4ZM658.594 424.528C669.864 413.226 662.034 397.429 650.504 389.927C638.034 381.819 616.174 385.843 614.034 402.363C611.074 425.222 642.904 440.256 658.594 424.528ZM726.484 390.796C723.764 391.158 715.164 395.251 712.854 396.892C694.654 409.904 709.804 435.704 730.314 436.124C769.784 436.925 757.424 386.664 726.484 390.796ZM672.344 501.195C662.134 503.031 652.344 514.744 652.904 524.953C654.644 556.174 708.814 558.302 701.904 518.953C691.904 501.195 687.624 498.723 673.904 501.195C673.904 501.195 682.554 499.358 672.344 501.195Z" fill="#4695F4"/>
<path d="M410.474 185.281C417.214 185.242 414.694 184.47 416.134 182.545C417.244 181.06 417.134 188.338 421.834 183.19C422.714 182.223 421.204 172.767 424.574 177.016C424.894 177.426 423.754 179.83 425.454 181.266C426.274 181.959 428.814 181.901 430.154 183.268C435.894 189.12 440.164 197.462 446.564 203.148L444.284 383.179C443.674 389.255 447.734 395.624 448.084 401.241C448.264 404.016 444.904 414.478 449.224 415.152C450.074 415.289 452.464 413.96 454.694 414.214C469.964 415.914 484.894 425.038 483.874 441.704L486.664 438.959C493.154 492.268 413.284 481.083 424.574 433.44L417.524 434.827C423.804 441.138 416.52 466.547 419 473.454C419.62 475.183 418.184 487.019 420.904 489.129C458.114 517.967 422.574 575.335 384.594 545.501C359.584 525.855 369.444 497.575 396.714 486.897C396.914 478.633 395.404 439.75 403.414 434.817L394.964 432.043C403.944 463.645 366.864 480.721 343.594 459.435C340.814 456.895 335.254 448.513 334.604 444.801C330.394 420.603 348.764 406.507 372.374 409.984C372.714 405.295 371.794 400.177 372.434 395.575C379.744 342.853 376.094 282.589 375.244 228.635C375.114 220.195 370.924 207.642 376.524 199.67C378.084 197.462 381.174 196.857 382.794 194.766C386.574 189.911 388.674 182.135 396.134 180.914L399.144 149.009C399.144 177.479 399.974 147.162 399.144 149.009C399.514 146.195 407.743 154.147 408.433 149.009C409.123 143.87 406.424 184.137 407.684 178.989C409.234 140.93 407.804 76.9296 410.244 38.9285C410.674 32.3052 413.284 25.721 413.134 19L416.004 32.0317C418.164 71.6446 413.134 136.866 413.134 176.166C413.134 181.676 414.884 189.266 416.074 194.766L411.854 193.398L411.884 146.645H416.134L416.074 148.002C426.034 147.416 420.204 161.23 421.774 167.775C421.934 168.439 428.324 170.539 422.444 175.6C422.324 168.888 417.224 172.054 411.874 171.458C411.494 168.869 415.244 171.506 414.704 168.029C414.314 165.499 413.144 164.248 410.464 164.571V185.251L410.474 185.281ZM422.914 282.901L422.974 213.728C421.684 209.898 413.914 211.862 410.474 211.481C414.944 230.11 409.364 252.94 411.774 271.53C412.124 274.256 416.194 273.259 414.694 277.636L411.874 275.574L411.794 388.464C421.644 394.198 417.344 384.312 418.074 378.294C421.604 349.232 421.204 321.791 421.684 292.054C421.724 289.378 423.254 286.828 423.254 285.304C423.254 283.888 420.284 285.187 420.334 283.849C420.384 282.51 422.284 283.634 422.914 282.901ZM384.594 455.029C395.864 443.726 388.034 427.93 376.504 420.427C364.034 412.319 342.174 416.344 340.034 432.863C337.074 455.723 368.904 470.757 384.594 455.029ZM452.484 421.297C449.764 421.658 441.164 425.751 438.854 427.393C420.654 440.405 435.804 466.204 456.314 466.625C495.784 467.426 483.424 417.165 452.484 421.297ZM398.344 496.871C388.134 498.708 378.344 510.421 378.904 520.629C380.644 551.851 434.814 553.978 427.904 514.629C417.904 496.871 413.624 494.4 399.904 496.871C399.904 496.871 408.554 495.035 398.344 496.871Z" fill="#4695F4"/>
<path d="M958.474 188.281C965.214 188.242 962.694 187.47 964.134 185.545C965.244 184.06 965.134 191.338 969.834 186.19C970.714 185.223 969.204 175.767 972.574 180.016C972.894 180.426 971.754 182.83 973.454 184.266C974.274 184.959 976.814 184.901 978.154 186.268C983.894 192.12 988.164 200.462 994.564 206.148L992.284 386.179C991.674 392.255 995.734 398.624 996.084 404.241C996.264 407.016 992.904 417.478 997.224 418.152C998.074 418.289 1000.46 416.96 1002.69 417.214C1017.96 418.914 1032.89 428.038 1031.87 444.704L1034.66 441.959C1041.15 495.268 961.284 484.083 972.574 436.44L965.524 437.827C971.804 444.138 964.52 469.547 967 476.454C967.62 478.183 966.184 490.019 968.904 492.129C1006.11 520.967 970.574 578.335 932.594 548.501C907.584 528.855 917.444 500.575 944.714 489.897C944.914 481.633 943.404 442.75 951.414 437.817L942.964 435.043C951.944 466.645 914.864 483.721 891.594 462.435C888.814 459.895 883.254 451.513 882.604 447.801C878.394 423.603 896.764 409.507 920.374 412.984C920.714 408.295 919.794 403.177 920.434 398.575C927.744 345.853 924.094 285.589 923.244 231.635C923.114 223.195 918.924 210.642 924.524 202.67C926.084 200.462 929.174 199.857 930.794 197.766C934.574 192.911 936.674 185.135 944.134 183.914L947.144 152.009C947.144 180.479 947.974 150.162 947.144 152.009C947.514 149.195 955.743 157.147 956.433 152.009C957.123 146.87 954.424 187.137 955.684 181.989C957.234 143.93 955.804 79.9296 958.244 41.9285C958.674 35.3052 961.284 28.721 961.134 22L964.004 35.0317C966.164 74.6446 961.134 139.866 961.134 179.166C961.134 184.676 962.884 192.266 964.074 197.766L959.854 196.398L959.884 149.645H964.134L964.074 151.002C974.034 150.416 968.204 164.23 969.774 170.775C969.934 171.439 976.324 173.539 970.444 178.6C970.324 171.888 965.224 175.054 959.874 174.458C959.494 171.869 963.244 174.506 962.704 171.029C962.314 168.499 961.144 167.248 958.464 167.571V188.251L958.474 188.281ZM970.914 285.901L970.974 216.728C969.684 212.898 961.914 214.862 958.474 214.481C962.944 233.11 957.364 255.94 959.774 274.53C960.124 277.256 964.194 276.259 962.694 280.636L959.874 278.574L959.794 391.464C969.644 397.198 965.344 387.312 966.074 381.294C969.604 352.232 969.204 324.791 969.684 295.054C969.724 292.378 971.254 289.828 971.254 288.304C971.254 286.888 968.284 288.187 968.334 286.849C968.384 285.51 970.284 286.634 970.914 285.901ZM932.594 458.029C943.864 446.726 936.034 430.93 924.504 423.427C912.034 415.319 890.174 419.344 888.034 435.863C885.074 458.723 916.904 473.757 932.594 458.029ZM1000.48 424.297C997.764 424.658 989.164 428.751 986.854 430.393C968.654 443.405 983.804 469.204 1004.31 469.625C1043.78 470.426 1031.42 420.165 1000.48 424.297ZM946.344 499.871C936.134 501.708 926.344 513.421 926.904 523.629C928.644 554.851 982.814 556.978 975.904 517.629C965.904 499.871 961.624 497.4 947.904 499.871C947.904 499.871 956.554 498.035 946.344 499.871Z" fill="#4695F4"/>
</svg>
