<svg width="154" height="549" viewBox="0 0 154 549" fill="none" xmlns="http://www.w3.org/2000/svg">
<path d="M76.4736 206.827C83.2136 206.788 80.6936 206.016 82.1336 204.092C83.2436 202.607 83.1336 209.885 87.8336 204.736C88.7136 203.769 87.2036 194.313 90.5736 198.562C90.8936 198.973 89.7536 201.376 91.4536 202.812C92.2736 203.506 94.8136 203.447 96.1536 204.815C101.894 210.666 106.164 219.009 112.564 224.694L110.284 404.725C109.674 410.801 113.734 417.171 114.084 422.788C114.264 425.562 110.904 436.025 115.224 436.699C116.074 436.835 118.464 435.507 120.694 435.761C135.964 437.461 150.894 446.585 149.874 463.25L152.664 460.505C159.154 513.814 79.2836 502.629 90.5736 454.986L83.5236 456.373C89.8036 462.684 84.0536 474.778 86.5336 481.684C87.1536 483.413 97.0336 487.341 99.7536 489.451C136.964 518.288 91.8536 569.614 53.8736 539.78C28.8636 520.135 38.7236 491.854 65.9936 481.176C66.1936 472.912 61.4036 461.297 69.4136 456.363L60.9636 453.589C69.9436 485.191 32.8636 502.267 9.59359 480.981C6.81359 478.441 1.25357 470.059 0.603572 466.347C-3.60643 442.15 14.7636 428.053 38.3736 431.531C38.7136 426.842 37.7936 421.723 38.4336 417.122C45.7436 364.399 42.0936 304.135 41.2436 250.181C41.1136 241.741 36.9236 229.188 42.5236 221.217C44.0836 219.009 47.1736 218.403 48.7936 216.313C52.5736 211.457 54.6736 203.681 62.1336 202.46L65.1436 170.555C65.9736 168.709 70.2136 169.666 70.4936 167.585C70.8636 164.772 68.7936 157.553 69.4836 152.414C70.1736 147.276 73.8636 139.637 75.1236 134.488C76.6736 96.4287 75.3736 57.9295 77.8136 19.9285C78.2436 13.3052 80.8536 6.721 80.7036 0L83.5736 13.0317C85.7336 52.6445 80.5736 92.3649 80.5736 131.665C80.5736 137.175 82.3236 144.765 83.5136 150.265L79.2936 148.897L77.8836 168.191L83.5236 166.823L82.0736 169.549C92.0336 168.963 86.2036 182.776 87.7736 189.321C87.9336 189.985 94.3236 192.086 88.4436 197.146C88.3236 190.435 83.2236 193.6 77.8736 193.004C77.4936 190.415 81.2436 193.053 80.7036 189.575C80.3136 187.045 79.1436 185.795 76.4636 186.117V206.798L76.4736 206.827ZM88.9136 304.447L88.9736 235.274C87.6836 231.445 79.9136 233.408 76.4736 233.027C80.9436 251.656 75.3636 274.486 77.7736 293.076C78.1236 295.802 82.1936 294.806 80.6936 299.182L77.8736 297.121L77.7936 410.01C87.6436 415.744 83.3436 405.858 84.0736 399.841C87.6036 370.778 87.2036 343.337 87.6836 313.601C87.7236 310.924 89.2536 308.375 89.2536 306.851C89.2536 305.434 86.2836 306.733 86.3336 305.395C86.3836 304.057 88.2836 305.18 88.9136 304.447ZM50.5936 476.575C61.8636 465.273 54.0336 449.476 42.5036 441.974C30.0336 433.866 8.17359 437.89 6.03359 454.41C3.07359 477.269 34.9036 492.303 50.5936 476.575ZM118.484 442.843C115.764 443.205 107.164 447.298 104.854 448.939C86.6536 461.951 101.804 487.751 122.314 488.171C161.784 488.972 149.424 438.711 118.484 442.843ZM67.6236 491.15C57.4136 492.987 47.6236 504.7 48.1836 514.908C49.9236 546.13 111.264 549.119 104.354 509.77C101.684 494.55 81.3336 488.679 67.6136 491.15H67.6236Z" fill="#4695F4"/>
</svg>
